<svg xmlns="http://www.w3.org/2000/svg" width="48" height="48" id="user"><g transform="translate(0 -1004.362)"><circle cx="37.045" cy="28.409" r="12.5" fill="#50b748" fill-rule="evenodd" transform="matrix(1.92 0 0 1.92 -47.127 973.817)"></circle><g transform="translate(257.006 -348.463)"><path style="isolation:auto;mix-blend-mode:normal" fill="#406b95" fill-rule="evenodd" d="M-247 1386.839v-4.515c0-3.894 3.122-7.029 7-7.029h6c3.878 0 7 3.135 7 7.029v4.515z" color="#000" overflow="visible"></path><ellipse style="isolation:auto;mix-blend-mode:normal" cx="-237.02" cy="1368.295" fill="#406b95" fill-rule="evenodd" color="#000" overflow="visible" rx="4.98" ry="5"></ellipse><path fill="none" stroke="#0c5286" stroke-linejoin="round" d="M-243 1382.317v4.538m12-4.538v4.538"></path></g><path style="isolation:auto;mix-blend-mode:normal" fill="#f9b537" d="M-210.591 1377.862v1.221a4.91 4.91 0 0 0-1.521.624l-.859-.858-1.543 1.542.861.861a4.91 4.91 0 0 0-.628 1.52h-1.22v2.181h1.222a4.91 4.91 0 0 0 .624 1.521l-.859.86 1.543 1.542.86-.861a4.91 4.91 0 0 0 1.52.628v1.22h2.182v-1.222a4.91 4.91 0 0 0 1.521-.624l.859.859 1.542-1.543-.86-.86a4.91 4.91 0 0 0 .628-1.52h1.219v-2.182h-1.22a4.91 4.91 0 0 0-.625-1.52l.858-.86-1.542-1.542-.861.86a4.91 4.91 0 0 0-1.52-.628v-1.219h-2.181z" color="#000" overflow="visible" transform="translate(238.516 -347.97)"></path><path style="isolation:auto;mix-blend-mode:normal" fill="#ee7581" d="M-205.396 1368.591v.84a3.375 3.375 0 0 0-1.046.429l-.59-.59-1.06 1.06.591.592a3.375 3.375 0 0 0-.432 1.044h-.838v1.5h.84a3.375 3.375 0 0 0 .429 1.046l-.59.59 1.06 1.06.592-.59a3.375 3.375 0 0 0 1.044.431v.838h1.5v-.84a3.375 3.375 0 0 0 1.046-.428l.59.59 1.06-1.06-.59-.592a3.375 3.375 0 0 0 .431-1.045h.838v-1.5h-.84a3.375 3.375 0 0 0-.428-1.046l.59-.59-1.06-1.06-.592.591a3.375 3.375 0 0 0-1.045-.432v-.838h-1.5z" color="#000" overflow="visible" transform="translate(238.516 -347.97)"></path><path style="line-height:normal;text-indent:0;text-align:start;text-decoration-line:none;text-decoration-style:solid;text-decoration-color:#000;text-transform:none;block-progression:tb;isolation:auto;mix-blend-mode:normal" fill="#f0f4f7" stroke="#0c5286" stroke-linecap="round" stroke-linejoin="round" d="M-204.646 1371.57a1.15 1.15 0 0 0-1.146 1.146c0 .63.516 1.146 1.146 1.146a1.15 1.15 0 0 0 1.146-1.146 1.15 1.15 0 0 0-1.146-1.146zm-4.854 10.292c-1.1 0-2 .9-2 2 0 1.099.9 2 2 2 1.099 0 2-.901 2-2 0-1.1-.901-2-2-2z" color="#000" font-family="sans-serif" font-weight="400" overflow="visible" transform="translate(238.516 -347.97)"></path></g></svg>